<svg width="98" height="95" viewBox="0 0 98 95" fill="none" xmlns="http://www.w3.org/2000/svg">
<path fill-rule="evenodd" clip-rule="evenodd" d="M79.3379 0C79.8429 0.058284 80.3872 0.0971816 80.9493 0.137357C84.0153 0.356479 87.6131 0.613611 88.2816 4.26145V57.3682H89.1731V4.26345H89.1737C89.1873 -0.0626174 87.5832 -0.0208577 86.1296 0.0169838C86.0783 0.0183189 86.0272 0.0196492 85.9764 0.0207826L79.3379 0ZM49.7364 4.26963C48.8965 2.95517 46.7996 0.412372 43.5431 0.0458208L50.1719 0.0457838C51.5554 0.0104922 52.6283 0.0411597 53.5735 1.74944L53.5764 1.74779L88.6036 61.6248C89.6984 62.8778 91.4268 64.279 93.78 64.5439L87.1513 64.5439C85.8839 64.5762 84.757 64.1873 84.0094 63.1159H84.0082L84.0022 63.1056C83.8908 62.9448 83.7879 62.7687 83.6943 62.5764L49.7569 4.25899L49.7364 4.26963ZM6.06421 4.07332C5.15031 2.71728 3.10085 0.39507 0 0.0460392L6.62876 0.0460022C8.08465 0.00886347 9.39786 0.582729 10.1229 1.97318L44.0777 60.3206L44.0787 60.3201C44.9185 61.6346 46.9786 64.1773 50.2351 64.5439L43.6063 64.5439C42.1359 64.5814 40.811 63.9656 40.0906 62.5439L6.06421 4.07332ZM44.9312 13.4764H44.0397V47.7098H44.9312V13.4764ZM25.6527 75.3622L25.4914 73.8039L24.2015 67.6371H23.1132L25.2496 77.107H25.8811L27.3725 70.9802L27.5606 69.5418H27.6009L27.789 70.9669L29.2804 77.107H29.8985L31.9946 67.6371H30.9868L29.791 73.7772L29.6029 75.3622H29.5895L29.4282 73.7906L27.9234 67.6371H27.3456L25.8408 73.7772L25.6795 75.3622H25.6527ZM37.112 67.6371H32.9334V76.9605H37.1792V76.0415H33.9411V72.6318H36.8567V71.7128H33.9411V68.5562H37.112V67.6371ZM43.2754 70.4475C43.3291 70.2167 43.356 69.9857 43.356 69.7549C43.356 69.2843 43.2799 68.9069 43.1276 68.6228C42.9843 68.3297 42.7917 68.1033 42.5498 67.9435C42.308 67.7837 42.0348 67.6771 41.7302 67.6238C41.4257 67.5616 41.1211 67.5306 40.8165 67.5306C40.3956 67.5306 40.0015 67.5483 39.6342 67.5839C39.2759 67.6194 38.9623 67.6638 38.6936 67.7171V76.8939C38.846 76.9383 39.0116 76.9694 39.1908 76.9871C39.3789 77.0138 39.567 77.0315 39.7551 77.0404C39.9432 77.0581 40.1179 77.0671 40.2791 77.0671H40.7225C41.1077 77.0671 41.4705 77.0138 41.8108 76.9072C42.1602 76.8007 42.4648 76.6365 42.7245 76.4144C42.9932 76.1924 43.2038 75.9083 43.356 75.562C43.5084 75.2068 43.5844 74.7895 43.5844 74.31C43.5844 73.946 43.5397 73.6351 43.45 73.3777C43.3606 73.1113 43.2396 72.8893 43.0873 72.7117C42.935 72.5252 42.7604 72.3831 42.5633 72.2855C42.3663 72.179 42.1602 72.1034 41.9452 72.0591V72.0058C42.196 71.9259 42.4066 71.806 42.5767 71.6462C42.7559 71.4864 42.9037 71.3043 43.0201 71.1001C43.1366 70.8959 43.2216 70.6783 43.2754 70.4475ZM41.4749 76.0415C41.2689 76.1125 41.045 76.148 40.8031 76.148H40.5075L40.185 76.1214C40.0865 76.1125 39.9925 76.1037 39.9029 76.0948C39.8223 76.0858 39.7551 76.0725 39.7013 76.0548V72.6451H40.6016C40.8434 72.6451 41.0764 72.6674 41.3002 72.7117C41.5332 72.7561 41.7392 72.8405 41.9183 72.9648C42.0976 73.089 42.2408 73.2667 42.3483 73.4975C42.4648 73.7196 42.5229 74.0126 42.5229 74.3766C42.5229 74.6696 42.4782 74.9271 42.3886 75.1491C42.2991 75.3622 42.1736 75.5443 42.0124 75.6952C41.8601 75.8461 41.681 75.9616 41.4749 76.0415ZM40.6822 71.7661C40.5209 71.775 40.3777 71.7794 40.2522 71.7794H39.7013V68.5162C39.8 68.4985 39.9432 68.4852 40.1313 68.4762C40.3194 68.4585 40.5299 68.4496 40.7628 68.4496C40.9689 68.4496 41.1659 68.4762 41.354 68.5295C41.5421 68.5739 41.7033 68.6538 41.8377 68.7693C41.9811 68.8847 42.093 69.0446 42.1736 69.2487C42.2542 69.4441 42.2945 69.6883 42.2945 69.9813C42.2945 70.4164 42.1736 70.7848 41.9317 71.0868C41.6989 71.3798 41.4167 71.5929 41.0853 71.7261C40.9778 71.7438 40.8434 71.7571 40.6822 71.7661ZM49.1969 67.6371H45.0182V76.9605H49.264V76.0415H46.0259V72.6318H48.9416V71.7128H46.0259V68.5562H49.1969V67.6371ZM51.7459 67.5839C51.3965 67.6105 51.074 67.6594 50.7784 67.7304V76.9605H51.7862V72.6984L52.7939 72.8982L54.8093 76.9605H55.9783L54.1241 73.2445L53.6135 72.7517C54.1241 72.6008 54.5316 72.3032 54.8362 71.8593C55.1497 71.4154 55.3065 70.8248 55.3065 70.0879C55.3065 69.5994 55.2347 69.1955 55.0915 68.8758C54.9571 68.5472 54.7734 68.2854 54.5406 68.09C54.3076 67.8858 54.0344 67.7437 53.721 67.6638C53.4074 67.5749 53.076 67.5306 52.7267 67.5306C52.4311 67.5306 52.1041 67.5483 51.7459 67.5839ZM52.5923 72.0324H51.7862V68.5295C51.8846 68.5029 52.028 68.4852 52.2161 68.4762C52.4131 68.4585 52.6012 68.4496 52.7804 68.4496C53.2641 68.4496 53.6269 68.6094 53.8688 68.9291C54.1195 69.2488 54.245 69.6527 54.245 70.1411C54.245 70.7804 54.0972 71.2555 53.8016 71.5663C53.506 71.877 53.1029 72.0324 52.5923 72.0324ZM60.9413 69.5817L61.5191 71.0468L64.9722 77.107H65.5903V67.6371H64.6229V73.5375L64.7707 74.936H64.7169L64.166 73.5375L60.6861 67.4906H60.0814V76.9605H61.0488V71.0468L60.901 69.5817H60.9413ZM68.2653 74.35H70.9257L71.6916 76.9605H72.7396L69.9045 67.4906H69.3536L66.5186 76.9605H67.5129L68.2653 74.35ZM70.6838 73.4576H68.534L69.3268 70.6073L69.5821 69.1822H69.6089L69.8642 70.5807L70.6838 73.4576ZM75.5741 68.5562H77.8851V67.6371H72.2553V68.5562H74.5664V76.9605H75.5741V68.5562ZM79.9445 72.6584H83.4111V76.9605H84.4188V67.6371H83.4111V71.7394H79.9445V67.6371H78.9368V76.9605H79.9445V72.6584ZM87.0943 74.35H89.7547L90.5206 76.9605H91.5686L88.7336 67.4906H88.1827L85.3476 76.9605H86.3419L87.0943 74.35ZM89.5129 73.4576H87.3631L88.1558 70.6073L88.4111 69.1822H88.438L88.6933 70.5807L89.5129 73.4576ZM93.3511 69.5817L93.9288 71.0468L97.3819 77.107H98V67.6371H97.0326V73.5375L97.1804 74.936H97.1266L96.5758 73.5375L93.0958 67.4906H92.4911V76.9605H93.4585V71.0468L93.3107 69.5817H93.3511ZM33.5647 92.5438L33.4035 90.9855L32.1136 84.8188H31.0253L33.1616 94.2886H33.7931L35.2846 88.1619L35.4727 86.7234H35.513L35.7011 88.1485L37.1925 94.2886H37.8106L39.9066 84.8188H38.8989L37.7031 90.9589L37.515 92.5438H37.5015L37.3403 90.9722L35.8355 84.8188H35.2577L33.7528 90.9589L33.5916 92.5438H33.5647ZM45.0242 84.8188H40.8456V94.1421H45.0914V93.2231H41.8533V89.8134H44.7689V88.8944H41.8533V85.7378H45.0242V84.8188ZM51.1876 87.6291C51.2413 87.3983 51.2682 87.1673 51.2682 86.9365C51.2682 86.4659 51.192 86.0885 51.0398 85.8044C50.8964 85.5114 50.7039 85.2849 50.462 85.1251C50.2202 84.9653 49.947 84.8587 49.6424 84.8054C49.3378 84.7433 49.0333 84.7122 48.7287 84.7122C48.3078 84.7122 47.9136 84.7299 47.5464 84.7655C47.188 84.801 46.8745 84.8454 46.6058 84.8987V94.0755C46.758 94.1195 46.9239 94.1515 47.103 94.1688C47.2911 94.1954 47.4792 94.2127 47.6673 94.222C47.8554 94.2394 48.0301 94.2487 48.1913 94.2487H48.6347C49.0199 94.2487 49.3827 94.1954 49.723 94.0889C50.0724 93.9823 50.377 93.8181 50.6367 93.5961C50.9054 93.374 51.116 93.0899 51.2682 92.7436C51.4204 92.3884 51.4966 91.9711 51.4966 91.4916C51.4966 91.1276 51.4519 90.8167 51.3622 90.5593C51.2726 90.2929 51.1517 90.0709 50.9995 89.8933C50.8472 89.7069 50.6726 89.5648 50.4755 89.4671C50.2783 89.3606 50.0724 89.2851 49.8574 89.2407V89.1874C50.1082 89.1075 50.3187 88.9876 50.4889 88.8278C50.668 88.668 50.8158 88.4859 50.9323 88.2817C51.0488 88.0776 51.1338 87.8599 51.1876 87.6291ZM49.3871 93.2231C49.1811 93.2941 48.9572 93.3297 48.7153 93.3297H48.4197L48.0972 93.303C47.9988 93.2941 47.9047 93.2853 47.8151 93.2764C47.7345 93.2675 47.6673 93.2541 47.6135 93.2364V89.8267H48.5138C48.7556 89.8267 48.9885 89.849 49.2124 89.8933C49.4453 89.9377 49.6514 90.0221 49.8305 90.1464C50.0096 90.2707 50.153 90.4483 50.2605 90.6792C50.377 90.9012 50.4351 91.1942 50.4351 91.5582C50.4351 91.8512 50.3904 92.1087 50.3008 92.3307C50.2112 92.5438 50.0858 92.7259 49.9246 92.8768C49.7723 93.0277 49.5931 93.1432 49.3871 93.2231ZM48.5944 88.9477C48.4331 88.9566 48.2898 88.961 48.1644 88.961H47.6135V85.6978C47.712 85.6801 47.8554 85.6668 48.0435 85.6579C48.2316 85.6402 48.4421 85.6312 48.675 85.6312C48.881 85.6312 49.0781 85.6579 49.2662 85.7111C49.4543 85.7555 49.6155 85.8354 49.7499 85.9509C49.8933 86.0664 50.0052 86.2262 50.0858 86.4304C50.1664 86.6258 50.2067 86.8699 50.2067 87.1629C50.2067 87.5981 50.0858 87.9665 49.844 88.2684C49.6111 88.5614 49.3289 88.7745 48.9975 88.9077C48.89 88.9254 48.7556 88.9388 48.5944 88.9477ZM58.8825 86.6035L58.7616 88.0153V94.1421H59.7693V84.8188H58.8825L56.7327 89.3872L56.4102 90.4927H56.3834L56.0475 89.4005L53.7767 84.8188H52.9303V94.1421H53.8977V88.0153L53.7096 86.6035H53.7633L54.1798 87.9221L56.1684 91.9711H56.5043L58.3988 87.9221L58.8288 86.6035H58.8825ZM62.4394 91.5316H65.0997L65.8656 94.1421H66.9136L64.0786 84.6723H63.5277L60.6926 94.1421H61.6869L62.4394 91.5316ZM64.8579 90.6392H62.7081L63.5008 87.7889L63.7561 86.3638H63.783L64.0383 87.7623L64.8579 90.6392ZM68.4811 93.2364C68.1765 93.1299 67.9391 93.0189 67.769 92.9035L67.4196 93.8225C67.6256 93.9463 67.8988 94.0582 68.2393 94.1554C68.5886 94.2527 69.032 94.302 69.5694 94.302C70.4204 94.302 71.0787 94.0795 71.5446 93.636C72.0103 93.1921 72.2433 92.5794 72.2433 91.798C72.2433 91.3362 72.1536 90.9366 71.9745 90.5993C71.7953 90.2619 71.5714 89.9599 71.3027 89.6935C71.034 89.4272 70.7428 89.1874 70.4294 88.9743C70.1248 88.7523 69.8382 88.5348 69.5694 88.3217C69.3007 88.1086 69.0767 87.8822 68.8976 87.6424C68.7184 87.4027 68.6289 87.1274 68.6289 86.8166C68.6289 86.4614 68.7453 86.1684 68.9782 85.9376C69.2111 85.6978 69.5694 85.578 70.0531 85.578C70.4472 85.578 70.7921 85.6179 71.0877 85.6978C71.3922 85.7777 71.6252 85.8666 71.7864 85.9642L72.1089 85.0852C71.8939 84.9609 71.6117 84.8587 71.2624 84.7788C70.9131 84.6989 70.5144 84.6589 70.0666 84.6589C69.341 84.6589 68.7498 84.841 68.293 85.205C67.845 85.5602 67.6212 86.1107 67.6212 86.8566C67.6212 87.3184 67.7107 87.7134 67.8899 88.042C68.069 88.3706 68.293 88.6636 68.5617 88.921C68.8304 89.1697 69.117 89.4005 69.4216 89.6136C69.7351 89.8178 70.0263 90.0309 70.295 90.253C70.5637 90.4661 70.7876 90.7014 70.9668 90.9589C71.1459 91.2163 71.2355 91.5183 71.2355 91.8646C71.2355 92.3884 71.0787 92.7747 70.7653 93.0233C70.4517 93.2631 70.0441 93.3829 69.5426 93.3829C69.1483 93.3829 68.7946 93.3341 68.4811 93.2364ZM76.2302 85.7378H78.5412V84.8188H72.9114V85.7378H75.2225V94.1421H76.2302V85.7378ZM83.7716 84.8188H79.5929V94.1421H83.8387V93.2231H80.6006V89.8134H83.5163V88.8944H80.6006V85.7378H83.7716V84.8188ZM86.3205 84.7655C85.9712 84.7921 85.6487 84.841 85.3531 84.912V94.1421H86.3609V89.88L87.3686 90.0798L89.384 94.1421H90.553L88.6988 90.4261L88.1882 89.9333C88.6988 89.7824 89.1063 89.4848 89.4109 89.0409C89.7243 88.597 89.8811 88.0064 89.8811 87.2695C89.8811 86.7811 89.8095 86.3771 89.6662 86.0574C89.5318 85.7289 89.3481 85.467 89.1153 85.2716C88.8824 85.0674 88.6091 84.9253 88.2957 84.8454C87.9822 84.7566 87.6507 84.7122 87.3014 84.7122C87.0058 84.7122 86.6789 84.7299 86.3205 84.7655ZM87.167 89.2141H86.3609V85.7111C86.4593 85.6845 86.6027 85.6668 86.7908 85.6579C86.9879 85.6402 87.176 85.6312 87.3551 85.6312C87.8388 85.6312 88.2016 85.7911 88.4435 86.1107C88.6943 86.4304 88.8197 86.8343 88.8197 87.3228C88.8197 87.9621 88.6719 88.4372 88.3763 88.7479C88.0807 89.0586 87.6776 89.2141 87.167 89.2141Z" fill="white"/>
</svg>
